<svg width="54" height="54" viewBox="0 0 54 54" fill="none" xmlns="http://www.w3.org/2000/svg">
<path d="M26 36C26 36.5523 26.4477 37 27 37C27.5523 37 28 36.5523 28 36H26ZM27.7071 19.2929C27.3166 18.9024 26.6834 18.9024 26.2929 19.2929L19.9289 25.6569C19.5384 26.0474 19.5384 26.6805 19.9289 27.0711C20.3195 27.4616 20.9526 27.4616 21.3431 27.0711L27 21.4142L32.6569 27.0711C33.0474 27.4616 33.6805 27.4616 34.0711 27.0711C34.4616 26.6805 34.4616 26.0474 34.0711 25.6569L27.7071 19.2929ZM28 36L28 20H26L26 36H28Z" fill="#C12626"/>
</svg>
