<svg width="36" height="36" viewBox="0 0 36 36" fill="none" xmlns="http://www.w3.org/2000/svg">
<path d="M23.76 18C23.76 19.1392 23.4222 20.2529 22.7893 21.2001C22.1563 22.1473 21.2568 22.8856 20.2043 23.3215C19.1518 23.7575 17.9936 23.8716 16.8763 23.6493C15.759 23.4271 14.7326 22.8785 13.9271 22.0729C13.1215 21.2674 12.5729 20.2411 12.3507 19.1237C12.1284 18.0064 12.2425 16.8482 12.6785 15.7957C13.1144 14.7432 13.8527 13.8437 14.7999 13.2107C15.7471 12.5778 16.8608 12.24 18 12.24C19.5271 12.2417 20.9912 12.8492 22.071 13.929C23.1508 15.0088 23.7583 16.4729 23.76 18ZM36 6.5215V30.5005C36 32.0005 35.3438 33.6567 34.5 34.5005C33.6562 35.3442 32 36.0005 30.5 36H5.5C4 36 2.26564 35.2661 1.50002 34.5005C0.625 33.6255 0 32.0005 0 30.5005V6.5215C0 4.5 0 3.5 1 2C2.17667 0.234997 4.00002 0 5.5 0H30.5C31.5 0 33.2339 0.234514 34.5 1.50008C35.7661 2.76565 36 4.50049 36 6.5215ZM26.64 18C26.64 16.2912 26.1333 14.6207 25.1839 13.1999C24.2345 11.779 22.8851 10.6716 21.3064 10.0177C19.7276 9.36374 17.9904 9.19264 16.3144 9.52602C14.6384 9.85939 13.0989 10.6823 11.8906 11.8906C10.6823 13.0989 9.85939 14.6384 9.52602 16.3144C9.19264 17.9904 9.36374 19.7276 10.0177 21.3064C10.6716 22.8851 11.779 24.2345 13.1999 25.1839C14.6207 26.1333 16.2912 26.64 18 26.64C20.2907 26.6374 22.4868 25.7263 24.1065 24.1065C25.7263 22.4868 26.6374 20.2907 26.64 18ZM29.52 8.64C29.52 8.21279 29.3933 7.79518 29.156 7.43997C28.9186 7.08476 28.5813 6.80791 28.1866 6.64442C27.7919 6.48093 27.3576 6.43816 26.9386 6.5215C26.5196 6.60485 26.1347 6.81057 25.8327 7.11265C25.5306 7.41473 25.3248 7.7996 25.2415 8.2186C25.1582 8.6376 25.2009 9.07191 25.3644 9.4666C25.5279 9.86128 25.8048 10.1986 26.16 10.436C26.5152 10.6733 26.9328 10.8 27.36 10.8C27.9329 10.8 28.4823 10.5724 28.8874 10.1673C29.2924 9.76227 29.52 9.21287 29.52 8.64Z" fill="#DDD2C9"/>
</svg>
