<svg width="36" height="36" viewBox="0 0 36 36" fill="none" xmlns="http://www.w3.org/2000/svg">
<g clip-path="url(#clip0_41_37)">
<path d="M30.408 0.000732422H5.59202C2.50383 0.000732422 0 2.50456 0 5.59276V5.60907L15.4067 19.6602C16.1454 20.3332 17.0655 20.6636 17.9993 20.6649C18.9345 20.6635 19.8533 20.3332 20.5919 19.6602L36 5.60907V5.59276C36 2.50456 33.4961 0.000732422 30.408 0.000732422Z" fill="#DDD2C9"/>
<path d="M18 23.5C16.0642 23.5013 14.1125 22.1558 12.5807 20.7592L0 9.28564V30.4072C0 33.4953 2.50383 35.9992 5.59202 35.9992H30.408C33.4961 35.9992 36 33.4953 36 30.4072V9.28564L23.418 20.7592C21.8875 22.1558 19.9373 23.5013 18 23.5Z" fill="#DDD2C9"/>
</g>
<defs>
<clipPath id="clip0_41_37">
<rect width="36" height="36" fill="white"/>
</clipPath>
</defs>
</svg>
